/* XPM */
static char * comptext_xpm[] = {
"64 64 611 2",
"  	c None",
". 	c #DDDDDD",
"+ 	c #DBDBDB",
"@ 	c #DADADA",
"# 	c #EBEBEB",
"$ 	c #F9F9F9",
"% 	c #F2F2F2",
"& 	c #EDEDED",
"* 	c #E7E7E7",
"= 	c #E4E4E4",
"- 	c #CECECE",
"; 	c #AFAFB0",
"> 	c #9E9E9F",
", 	c #969697",
"' 	c #919192",
") 	c #8E8E8F",
"! 	c #8E8F90",
"~ 	c #929292",
"{ 	c #979798",
"] 	c #A0A0A1",
"^ 	c #B0B0B0",
"/ 	c #D0CFD0",
"( 	c #F1F1F2",
"_ 	c #F4F4F5",
": 	c #F6F6F6",
"< 	c #F1F1F1",
"[ 	c #ECECEC",
"} 	c #FBFBFB",
"| 	c #F4F4F4",
"1 	c #E8E8E8",
"2 	c #DEDEDE",
"3 	c #C3C3C3",
"4 	c #A9A9A9",
"5 	c #717172",
"6 	c #58585A",
"7 	c #515153",
"8 	c #575759",
"9 	c #59595B",
"0 	c #595A5C",
"a 	c #58595B",
"b 	c #57585A",
"c 	c #525254",
"d 	c #535354",
"e 	c #737375",
"f 	c #959594",
"g 	c #C7C7C7",
"h 	c #F6F6F5",
"i 	c #FCFCFC",
"j 	c #E2E2E2",
"k 	c #DCDCDC",
"l 	c #FAFAFA",
"m 	c #DFDFDF",
"n 	c #CBCBCB",
"o 	c #8B8B8B",
"p 	c #626262",
"q 	c #4C4C4E",
"r 	c #545456",
"s 	c #555456",
"t 	c #545455",
"u 	c #545355",
"v 	c #4D4D4F",
"w 	c #5A5A5B",
"x 	c #8E8E8E",
"y 	c #FEFEFE",
"z 	c #F7F7F7",
"A 	c #E3E3E3",
"B 	c #C0C0C0",
"C 	c #757575",
"D 	c #4A4A4C",
"E 	c #4F4F50",
"F 	c #4E4E50",
"G 	c #4F4F51",
"H 	c #4E4E4F",
"I 	c #48484A",
"J 	c #737373",
"K 	c #D0D0D0",
"L 	c #F8F8F8",
"M 	c #F3F3F3",
"N 	c #E0E0E0",
"O 	c #747474",
"P 	c #454545",
"Q 	c #494949",
"R 	c #49494C",
"S 	c #49494B",
"T 	c #424242",
"U 	c #6F6F6F",
"V 	c #E9E9E9",
"W 	c #D2D2D2",
"X 	c #444445",
"Y 	c #454544",
"Z 	c #444444",
"` 	c #454547",
" .	c #454546",
"..	c #3E3E3E",
"+.	c #979797",
"@.	c #C2C2C2",
"#.	c #616262",
"$.	c #3D3D3F",
"%.	c #414143",
"&.	c #404143",
"*.	c #404141",
"=.	c #404140",
"-.	c #555555",
";.	c #D9D9D9",
">.	c #F5F5F5",
",.	c #D8D8D8",
"'.	c #AFADAF",
").	c #444345",
"!.	c #3C3A3D",
"~.	c #3D3B3E",
"{.	c #3E3C3E",
"].	c #373538",
"^.	c #C4C2C5",
"/.	c #FDFDFD",
"(.	c #EEEEEE",
"_.	c #D3D3D3",
":.	c #9C9B9B",
"<.	c #363435",
"[.	c #393739",
"}.	c #3A383A",
"|.	c #39373A",
"1.	c #3A383B",
"2.	c #3A3839",
"3.	c #39373B",
"4.	c #302E30",
"5.	c #A4A2A3",
"6.	c #FDFDFC",
"7.	c #939393",
"8.	c #2E2C2D",
"9.	c #353334",
"0.	c #353335",
"a.	c #353336",
"b.	c #363436",
"c.	c #363434",
"d.	c #949494",
"e.	c #FFFFFF",
"f.	c #F1F0F0",
"g.	c #D1D1D1",
"h.	c #959595",
"i.	c #2C2A2B",
"j.	c #343031",
"k.	c #323031",
"l.	c #312F30",
"m.	c #323030",
"n.	c #323032",
"o.	c #2A292A",
"p.	c #9B9B9B",
"q.	c #D4D6D5",
"r.	c #A1A1A1",
"s.	c #2F2D2E",
"t.	c #262325",
"u.	c #B6B5B5",
"v.	c #FCFDFC",
"w.	c #B1B1B1",
"x.	c #313031",
"y.	c #2B292A",
"z.	c #232122",
"A.	c #DAD9D9",
"B.	c #EAEAEA",
"C.	c #E5E5E5",
"D.	c #BDBDBD",
"E.	c #474748",
"F.	c #282727",
"G.	c #2A2728",
"H.	c #282728",
"I.	c #292728",
"J.	c #282627",
"K.	c #292627",
"L.	c #2A2828",
"M.	c #333233",
"N.	c #C8C8C8",
"O.	c #777677",
"P.	c #272526",
"Q.	c #262425",
"R.	c #262426",
"S.	c #272425",
"T.	c #262526",
"U.	c #272426",
"V.	c #6C6B6C",
"W.	c #FEFFFE",
"X.	c #D8D9D9",
"Y.	c #A9A7A8",
"Z.	c #252223",
"`.	c #262324",
" +	c #272324",
".+	c #262223",
"++	c #272223",
"@+	c #242223",
"#+	c #242324",
"$+	c #252324",
"%+	c #1D1B1C",
"&+	c #C9C8C9",
"*+	c #BCBDBD",
"=+	c #4C4A4B",
"-+	c #242122",
";+	c #242021",
">+	c #252122",
",+	c #252021",
"'+	c #222021",
")+	c #232021",
"!+	c #1F1C1D",
"~+	c #1A1718",
"{+	c #191718",
"]+	c #191617",
"^+	c #1C1A1B",
"/+	c #393738",
"(+	c #979697",
"_+	c #1D1A1B",
":+	c #231F20",
"<+	c #231F1F",
"[+	c #24201F",
"}+	c #242020",
"|+	c #211D1E",
"1+	c #1B1718",
"2+	c #636061",
"3+	c #B2B1B1",
"4+	c #E3E1E2",
"5+	c #FAF9F9",
"6+	c #EBEAEB",
"7+	c #C4C2C3",
"8+	c #817F80",
"9+	c #1C191A",
"0+	c #221F20",
"a+	c #B8B8B8",
"b+	c #464344",
"c+	c #24201E",
"d+	c #221F1E",
"e+	c #1F1C1C",
"f+	c #989999",
"g+	c #FDFEFE",
"h+	c #C2C1C2",
"i+	c #3A3738",
"j+	c #1E1A1A",
"k+	c #23201E",
"l+	c #232020",
"m+	c #353233",
"n+	c #F7F6F6",
"o+	c #D5D5D5",
"p+	c #9D9D9E",
"q+	c #211D1F",
"r+	c #221E1F",
"s+	c #686667",
"t+	c #A3A2A3",
"u+	c #191618",
"v+	c #221E20",
"w+	c #221D1F",
"x+	c #AEACAD",
"y+	c #BFBFBF",
"z+	c #545454",
"A+	c #1A1617",
"B+	c #B0AEAF",
"C+	c #E9E8E8",
"D+	c #282425",
"E+	c #525051",
"F+	c #AEADAE",
"G+	c #2A2829",
"H+	c #C6C4C5",
"I+	c #FEFFFF",
"J+	c #FDFCFD",
"K+	c #2B2829",
"L+	c #211E1F",
"M+	c #110E0F",
"N+	c #EEEDED",
"O+	c #888788",
"P+	c #191516",
"Q+	c #FEFDFD",
"R+	c #F2F1F2",
"S+	c #201C1D",
"T+	c #8D8A8B",
"U+	c #545354",
"V+	c #201D1D",
"W+	c #221D1E",
"X+	c #6D6A6B",
"Y+	c #C5C3C5",
"Z+	c #181617",
"`+	c #575555",
" @	c #3B3839",
".@	c #231C1E",
"+@	c #211E1E",
"@@	c #221C1E",
"#@	c #211F1F",
"$@	c #5E5D5E",
"%@	c #161415",
"&@	c #A7A7A7",
"*@	c #1F1A1B",
"=@	c #9A999A",
"-@	c #E8E8E7",
";@	c #120E10",
">@	c #161213",
",@	c #8A8A8A",
"'@	c #1E1B1C",
")@	c #FCFDFD",
"!@	c #605E5E",
"~@	c #959494",
"{@	c #6C6C6C",
"]@	c #1F1B1C",
"^@	c #141112",
"/@	c #1D1B1B",
"(@	c #616060",
"_@	c #FEFDFE",
":@	c #B5B4B5",
"<@	c #1D1819",
"[@	c #7E7B7C",
"}@	c #5C5B5C",
"|@	c #211C1D",
"1@	c #504C4D",
"2@	c #CBC9CA",
"3@	c #FAF9FA",
"4@	c #EDECED",
"5@	c #A9A8A8",
"6@	c #1D191A",
"7@	c #1E1A1B",
"8@	c #B0AFAF",
"9@	c #898989",
"0@	c #656566",
"a@	c #6B6B6C",
"b@	c #9B9B9C",
"c@	c #120D0F",
"d@	c #6B6869",
"e@	c #545152",
"f@	c #201E1F",
"g@	c #5F5E5F",
"h@	c #F0F0F0",
"i@	c #302E2F",
"j@	c #2F2E2F",
"k@	c #2E2D2E",
"l@	c #444243",
"m@	c #2F2C2E",
"n@	c #4F4C4D",
"o@	c #120E0F",
"p@	c #939192",
"q@	c #FDFDFE",
"r@	c #4E4C4D",
"s@	c #231E1F",
"t@	c #929191",
"u@	c #605D5E",
"v@	c #4B4748",
"w@	c #474344",
"x@	c #FCFEFD",
"y@	c #DBDADB",
"z@	c #181516",
"A@	c #535051",
"B@	c #777475",
"C@	c #444142",
"D@	c #4E4B4C",
"E@	c #494445",
"F@	c #DCDBDC",
"G@	c #191416",
"H@	c #231D1E",
"I@	c #504F4F",
"J@	c #787677",
"K@	c #464444",
"L@	c #504D4E",
"M@	c #FEFEFD",
"N@	c #201B1C",
"O@	c #4A4748",
"P@	c #8E8C8D",
"Q@	c #545353",
"R@	c #666365",
"S@	c #1B1819",
"T@	c #363334",
"U@	c #E8E7E7",
"V@	c #312E2F",
"W@	c #5E5C5C",
"X@	c #5D5C5C",
"Y@	c #575556",
"Z@	c #D4D3D3",
"`@	c #716F70",
" #	c #666364",
".#	c #3B393A",
"+#	c #7B7879",
"@#	c #FDFEFD",
"##	c #2C292A",
"$#	c #716F6F",
"%#	c #727171",
"&#	c #262122",
"*#	c #181415",
"=#	c #110D0E",
"-#	c #130F10",
";#	c #1F1E1F",
">#	c #C0BFC0",
",#	c #0F0B0C",
"'#	c #848182",
")#	c #909090",
"!#	c #141213",
"~#	c #4A494A",
"{#	c #D9D8D9",
"]#	c #120F10",
"^#	c #A1A0A1",
"/#	c #A0A0A0",
"(#	c #858182",
"_#	c #878586",
":#	c #ACA9AA",
"<#	c #0C090A",
"[#	c #E2E1E1",
"}#	c #A8A8A8",
"|#	c #413F40",
"1#	c #AFAEAE",
"2#	c #1C1719",
"3#	c #757273",
"4#	c #2D292B",
"5#	c #B7B7B7",
"6#	c #5B5A5B",
"7#	c #E9E8E9",
"8#	c #413D3E",
"9#	c #696767",
"0#	c #979696",
"a#	c #696869",
"b#	c #CDCBCC",
"c#	c #141011",
"d#	c #A7A6A7",
"e#	c #F1F2F1",
"f#	c #A1A0A0",
"g#	c #373737",
"h#	c #292526",
"i#	c #E1DFE0",
"j#	c #555354",
"k#	c #757475",
"l#	c #B3B3B2",
"m#	c #CCCBCB",
"n#	c #FCFBFC",
"o#	c #E6E6E7",
"p#	c #FBFBFC",
"q#	c #6B686A",
"r#	c #4D4C4D",
"s#	c #5D5B5C",
"t#	c #AEADAD",
"u#	c #9A9898",
"v#	c #D7D5D6",
"w#	c #F3F2F2",
"x#	c #ABABAB",
"y#	c #171314",
"z#	c #474445",
"A#	c #161113",
"B#	c #201D1E",
"C#	c #7A7677",
"D#	c #525152",
"E#	c #C6C6C6",
"F#	c #868585",
"G#	c #484748",
"H#	c #171415",
"I#	c #131011",
"J#	c #343132",
"K#	c #615D5F",
"L#	c #ACABAB",
"M#	c #161314",
"N#	c #ACACAC",
"O#	c #626060",
"P#	c #F8F9F9",
"Q#	c #F8F9F8",
"R#	c #EAE9EA",
"S#	c #181515",
"T#	c #5F5D5D",
"U#	c #F2F3F3",
"V#	c #CCCCCC",
"W#	c #9A9899",
"X#	c #302D2F",
"Y#	c #1E1C1C",
"Z#	c #F3F2F3",
"`#	c #FCFBFB",
" $	c #434142",
".$	c #E6E6E6",
"+$	c #818181",
"@$	c #4E4A4B",
"#$	c #F1EFF0",
"$$	c #8D8B8C",
"%$	c #A2A3A2",
"&$	c #868485",
"*$	c #EDEEED",
"=$	c #C0BFBF",
"-$	c #1A1516",
";$	c #5D5A5B",
">$	c #EFEFEF",
",$	c #CDCDCD",
"'$	c #9E9E9E",
")$	c #424142",
"!$	c #AAA8A9",
"~$	c #D2D0D1",
"{$	c #231E20",
"]$	c #E6E7E6",
"^$	c #C5C5C5",
"/$	c #969897",
"($	c #1B1618",
"_$	c #DDDEDE",
":$	c #2A2527",
"<$	c #D6D6D5",
"[$	c #BEBEBE",
"}$	c #302D2E",
"|$	c #1E191A",
"1$	c #AAA9AA",
"2$	c #DDDCDC",
"3$	c #CBCACA",
"4$	c #2C2628",
"5$	c #1F1D1E",
"6$	c #CACACA",
"7$	c #BABBBB",
"8$	c #8F9090",
"9$	c #1B1617",
"0$	c #D4D5D4",
"a$	c #D4D4D4",
"b$	c #D6D6D6",
"c$	c #D4D5D5",
"d$	c #B7B5B6",
"e$	c #221F21",
"f$	c #C6C7C6",
"g$	c #EEEFEF",
"h$	c #626161",
"i$	c #D1CFCF",
"j$	c #D1CFD0",
"k$	c #CFD0CF",
"l$	c #CFCFCF",
"m$	c #D1D0D0",
"n$	c #D0CFCF",
"o$	c #D6D5D6",
"p$	c #908D8E",
"q$	c #2F2C2D",
"r$	c #CBCCCB",
"s$	c #EEEFEE",
"t$	c #9D9F9E",
"u$	c #1C1718",
"v$	c #332F30",
"w$	c #B9B8B9",
"x$	c #CECDCD",
"y$	c #CCCACB",
"z$	c #181214",
"A$	c #4B4849",
"B$	c #D7D8D7",
"C$	c #CDCCCC",
"D$	c #C7C6C7",
"E$	c #C8C6C7",
"F$	c #C7C5C6",
"G$	c #C7C5C5",
"H$	c #CECDCE",
"I$	c #838283",
"J$	c #E1E0E1",
"K$	c #F5F4F4",
"L$	c #989898",
"M$	c #1C1819",
"N$	c #201C1E",
"O$	c #828080",
"P$	c #C2C0C1",
"Q$	c #C1C0C0",
"R$	c #CAC8C9",
"S$	c #999899",
"T$	c #403E3E",
"U$	c #E5E6E6",
"V$	c #F7F8F7",
"W$	c #383536",
"X$	c #716D6E",
"Y$	c #B1AEAF",
"Z$	c #BEBCBD",
"`$	c #BDBBBC",
" %	c #C3C1C2",
".%	c #BBB9BA",
"+%	c #828182",
"@%	c #292829",
"#%	c #322E30",
"$%	c #999697",
"%%	c #EDEEEE",
"&%	c #DFDFDE",
"*%	c #C4C5C4",
"=%	c #838383",
"-%	c #403D3E",
";%	c #191415",
">%	c #373335",
",%	c #7A7778",
"'%	c #C1BFC0",
")%	c #BEBDBE",
"!%	c #B9B7B8",
"~%	c #B8B6B7",
"{%	c #BDBCBC",
"]%	c #ABA9AA",
"^%	c #858183",
"/%	c #4C4849",
"(%	c #1B1517",
"_%	c #161012",
":%	c #3E3A3C",
"<%	c #919091",
"[%	c #E7E8E7",
"}%	c #F7F8F8",
"|%	c #9A9A9A",
"1%	c #5A5A5A",
"2%	c #373435",
"3%	c #423F40",
"4%	c #666465",
"5%	c #797778",
"6%	c #858384",
"7%	c #8F8C8D",
"8%	c #959394",
"9%	c #969394",
"0%	c #918F90",
"a%	c #888586",
"b%	c #7D7A7B",
"c%	c #322F30",
"d%	c #5F5E5E",
"e%	c #D7D7D7",
"f%	c #E5E3E4",
"g%	c #C1C1C1",
"h%	c #B1B1B2",
"i%	c #6D6C6D",
"j%	c #151112",
"k%	c #383637",
"l%	c #545253",
"m%	c #717070",
"n%	c #DCDDDC",
"o%	c #EAEBEA",
"p%	c #F8F6F7",
"q%	c #939292",
"r%	c #8C8C8C",
"s%	c #8B8B8C",
"t%	c #B9B8B8",
". . . . . . . . . . . . . . . . . . + @ # $ % & * = - ; > , ' ) ! ~ { ] ^ / ( _ : < & @ + . . . . . . . . . . . . . . . . . . . ",
". . . . . . . . . . . . . . . . @ [ } | 1 2 3 4 5 6 7 8 9 0 0 0 0 a a a b c d e f g h $ i j k . . . . . . . . . . . . . . . . . ",
". . . . . . . . . . . . . . + [ l & m n o p q r s t u r r r r r r r r r r r r r r v w x y z % A k . . . . . . . . . . . . . . . ",
". . . . . . . . . . . . k A < & k B C D v E F F F E F G G G G G G G G G G G G G G F F H I J K L M A . . . . . . . . . . . . . . ",
". . . . . . . . . . . @ | % N g O P Q D D D D D D D D R S S D D S D D D D D D S S D D D S Q T U j l [ + . . . . . . . . . . . . ",
". . . . . . . . . k j } V W f P X P P X Y P P P P P Y Z P P P Z ` `  .P Z P Z Z Z Y P P P P X P ..+.L | @ . . . . . . . . . . . ",
". . . . . . . . k [ | m @.#.$.%.&.&.&.&.&.&.&.&.%.%.%.&.&.*.=.*.%.&.&.&.&.&.&.%.%.&.&.&.%.&.&.&.&.$.-.= i ;.. . . . . . . . . . ",
". . . . . . . + >.% ,.'.).!.~.~.~.~.~.~.~.~.~.~.~.~.~.~.~.~.~.~.~.~.~.~.~.~.~.~.~.~.~.~.~.~.~.~.~.~.{.].^./.j . . . . . . . . . ",
". . . . . . @ >.(._.:.<.[.[.}.[.[.[.[.|.|.|.|.|.|.[.[.}.}.}.1.}.2.[.[.}.}.}.}.}.}.}.[.[.2.[.[.}.}.2.1.3.4.5.6.j . . . . . . . . ",
". . . . . k # (.K 7.8.9.9.9.<.9.<.9.9.0.a.a.a.b.c.9.9.9.<.0.a.0.9.9.9.9.9.9.9.9.<.<.9.9.9.9.9.<.9.<.9.9.9.8.d.e.@ . . . . . . . ",
". . . . k >.f.g.h.i.j.k.l.k.l.l.l.l.k.l.k.m.k.l.l.l.l.k.l.l.k.k.k.k.k.l.k.l.l.k.l.l.l.k.k.k.k.l.k.l.n.n.n.m.o.p.>.A . . . . . . ",
". . . . j | q.r.o.8.s.8.8.8.8.8.8.8.8.8.8.8.8.8.8.8.8.8.8.8.8.8.8.8.8.8.8.8.8.8.8.8.8.8.8.8.8.8.8.8.8.8.8.8.8.t.u.v.@ . . . . . ",
". . . A L k w.x.y.y.y.y.i.y.y.i.i.i.y.y.i.i.i.i.i.i.y.i.i.i.i.i.i.i.i.y.y.y.y.i.y.i.i.i.i.i.i.i.y.i.i.i.i.i.y.i.z.A.B.. . . . . ",
". . + % C.D.E.F.G.H.F.I.I.J.I.J.J.J.K.H.F.F.J.J.J.I.K.F.J.F.F.J.J.J.F.J.F.H.H.F.I.J.F.F.F.F.J.H.I.J.J.J.J.J.J.K.L.M.l j . . . . ",
". . [ (.N.O.z.P.Q.R.S.Q.T.T.T.T.T.P.T.U.U.U.T.T.P.Q.T.U.P.U.U.P.Q.P.U.S.P.S.S.S.S.P.P.Q.P.S.P.P.P.P.P.P.P.P.U.T.U.Q.V.W.@ . . . ",
". A z X.Y.Z.`. +`..+ + +++++++++Z.@+Z..+.+`.++ +++++++`..+.+.+.+ +++++.+.+.+`.`.#+#+.+.+.+.+.+.+@+@+@+$+#+@+@+.+`..+%+&+M k . . ",
"k M 1 *+=+-+;+;+;+;+;+;+;+;+;+;+;+;+;+;+;+;+;+>+;+;+;+>+;+;+;+;+;+;+;+;+;+;+;+,+'+)+z.!+~+{+{+]+{+{+^+z.)+;+)+;+;+;+z./+e.A . . ",
"@ >._.(+_+:+<+[+[+;+;+;+;+}+[+[+}+;+;+;+:+:+;+:+;+;+;+:+;+;+:+;+<+[+[+[+[+[+<+<+|+1+2+3+4+5+e.e.y 6+7+8+z.9+)+<+<+[+0+_+5.B.. . ",
"# * a+b+:+}+c+[+[+;+;+;+;+}+c+[+}+;+;+;+;+;+;+;+;+;+;+;+;+;+;+}+c+[+[+[+[+[+d+e+f+/.e.i g+/.y /./.y v.e.e.h+i+j+[+k+l+:+m+e.A . ",
"n+o+p+1+|+|+q+q+|+|+|+|+|+|+q+q+|+|+|+|+|+|+|+|+|+|+|+|+r+r+|+|+q+r+|+r+|+~+s+e.y /.i y y /././.y i y /././.e.t+u+v+w+|+~+x+V . ",
"& y+z+|+r+r+r+r+r+r+r+r+r+r+r+r+r+r+r+r+r+r+r+r+r+r+r+r+r+r+|+|+|+|+|+|+A+B+e././././././././.y /.y /./.y /././.C+D+r+|+|+E+e.@ ",
"N F+G+|+r+r+r+r+r+r+r+r+r+r+r+r+r+r+r+r+r+r+r+r+r+r+r+r+|+r+|+|+|+|+|+1+H+I+J+/./././././.y y y y /./././.y /./.J+l K+r+L+M+N+& ",
"K O+]+|+r+r+r+r+r+r+r+r+r+r+r+r+r+r+r+r+r+r+r+r+r+r+r+r+|+r+|+|+|+|+P+B+Q+/./././././.y y /./././.i /././.y /./././.R+_+L+S+T+B.",
"y+U+V+r+W+r+r+r+r+r+r+r+r+r+r+r+r+r+r+r+r+r+r+r+r+r+r+r+r+r+|+r+|+|+X+e./././.y /./.y y /./.y y /././.y /./.y y /.y i Y+Z+|+`+e.",
"w. @.@+@L+r+r+r+r+r+r+r+r+r+r+r+r+r+r+r+r+r+r+r+r+r+r+|+r+|+S+W+@@#@e././././.y /.y y y /./././.y /.i y /.y y y y y /.e.$@r+%@e.",
"&@_+.@+@r+r+r+r+r+r+r+r+r+r+w+q+r+r+w+r+r+r+r+r+r+r+r+r+|+r+|+r+*@=@y i /././.i y i /./././.y /./.y i i y y /./.y y /./.-@;@>@N.",
",@P+@@L+r+r+r+r+r+r+r+r+r+q+q+L+q+q+q+q+r+r+r+r+r+r+r+r+|+|+r+r+'@e.)@y /.y /.i y i /./././././.y y i /.i /././.y y y y e.!@S+~@",
"{@]@|+r+r+r+r+r+r+r+r+r+W+|+w+Z+M+^@/@|+r+|+r+r+r+r+r+|+|+r+|+r+(@e._@/.y y y y /.y y y y /.e.e.e.y /./././.y y y y y /.i :@<@[@",
"}@|@|+r+r+r+r+r+r+r+L+W+r+]@1@2@3@4@5@6@|+r+|+r+r+r+r+r+r+r+|+7@8@)@_@y y y /.y /.y g+y /.: 9@0@a@b@e.} y /./.y y y y /.i L c@d@",
"e@|+r+r+r+r+r+r+r+r+r+f@S+g@e./././._@# ~+W+r+r+r+r+r+r+r+|+|+>@h@/./.y y /.y i y g+_@/.4@i.i@i@j@k@l@e.v.y y y y y y /./.e.m@`+",
"n@|+r+r+r+r+r+r+r+r+r+f@o@>././.y y /.W.p@S+|+r+r+r+r+r+r+|+|+7@/./././.y y /.y /.q@q@e.r@r+r+W+W+s@!+t@/.y y y y y y /./.e.u@v@",
"=+|+r+r+r+r+r+r+r+r+r+f@w@e./.y y y y x@y@z@q+r+r+r+r+r+r+|+|+]@e././.y y y /./.y g+q@e.!+|+q+|+W+w+r+A@e.g+y y y y /.y q@e.B@C@",
"D@|+r+r+r+r+r+r+r+r+L+L+E@e.} y y y /./.F@G@r+r+r+r+r+r+r+r+|+*@e././.y y /./././.g+_@e.'@|++@L+r+|+H@I@e.y /././.y y y Q+e.J@K@",
"L@|+r+r+r+r+r+r+r+r+r+L+c@L /.y M@/././.+.N@|+r+r+r+r+r+r+|+r+:+e.i y y y /./.y y g+_@e.O@r+r+r+|++@S+P@y /./././.y y y q@e.X+D@",
"Q@|+|+r+r+r+r+r+r+r+r+q+|+R@e./.v.)@i f.S@@@|+r+r+r+|+r+r+L+r+T@e././.y y y /./.y g+q@i U@]+r+W+r+:+V@e./././././.y y y /.e.A@W@",
"X@S+|+|+r+r+r+r+r+r+r+r+|+_+Y@Z@e.n+w.]@L+q++@r+|+|+r+r+W+f@r+`@e./.y y y /.y y y q@y /.i (. #m+.#+#e.i i /.y y /.y /.q@@#e.##$#",
"%#<@&#|+W+r+r+r+r+r+r+|+r+L+.@*#=#-#6@w+L+;#r+r+|+|+r+r+r+|+1+>#/././.y y y y y y y /./.y x@e.e.e.W./.y i /./.y /././.M@/.e.,#'#",
")#!#~#9+L+r+r+r+r+r+r+r+L+q+L+|+|+|+q+q+L+r+L+|+r+S+r+r+q+W+S@e.y /.y y /.y y y /.y y y /./././._@_@q@y i /.y y y y y y J+{#]#^#",
"/#Q.(#K.|+|+r+r+r+r+r+r+r+r+r+r+r+r+r+r+r+r+r+r+|+|+r+|+r+S+_#e./././.i y /./././././././.y /./.i /././.i i /./.y y y y /.:#<#[#",
"}#|#;+1#2#|+L+r+r+r+r+r+r+r+r+r+r+r+r+r+r+r+r+r+|+r+|+|+|+Z+} )@/./././.y /././././././././.y /././././././.y y y y y /.e.3#4#/.",
"5#6#>@7#8#r+L+r+r+r+r+r+r+r+r+r+r+r+r+r+r+r+r+r+r+r+|+|+~+3+/././.y y /.y y /.i y i /.y y /./.y /./.y y y /./.y y y /.y e.S@9#L ",
"N.P@A+0#% !+|+W+r+L+r+r+r+r+r+r+r+r+r+r+r+r+r+r+|+|+|+|+a#e.y y /.y y y i /./.i y /./.i /./.y /./.y /././.i i /.y y y /.b#c#d#e#",
";.f#g#h#e.i#~+|+q+L+|+r+r+r+r+r+r+r+r+r+r+r+r+r+r+|+]@j#e./.y y y y /.i /././.y i /././.y y /.y /.i /./.y y /.y y y y e.k#L+n+[ ",
"U@l#p *#m#n#o#)+W+|+r+r+r+r+r+r+r+r+r+r+r+r+r+|+|+~+s+e./.q@y y y y /./././.y y /.y /./././.y y y /.y y y y y y /./._@p#!#q#L @ ",
"% n +..+r#e.n#Q+s#*#|+|+W+w+L+L+|+|+L+q+r+|+|+|+1+t#e.g+q@q@y y /.y y y /.y y y y /./.y y /././.y /./.y y /.y y /.i y u#-#v#w#k ",
"< N x#U+y#{#/./.e.K z#A#|+|+|+|+|+B#|+W+w+<@6@C#_@/.y Q+g+g+g+y /.y y y i y y y y y /././././././.i /./.y /.y y /./.e.6@D#| & . ",
"= h@E#7.-+C@e.i i i e.6+F#G#h#H#]#I#6@J#K#L#e.e.i i /./././././.i /././.i /./././././././.i /./.i /./.i /.i /././.e._#M#- < + . ",
"k < m N#O#*#:@P#$ $ P#$ $ e.e.e.} y e.e.g+Q#P#P#P#$ $ $ $ $ $ $ $ $ $ $ $ $ $ $ $ $ $ $ $ $ $ $ $ $ $ $ $ $ $ P#L R#S#T#U#[ . . ",
". & h@V#W#X#Y#Z#% M % M % % M M M M M M % % M M % % M % M % % % M M M % % M % % % % % % M M M M M M % % M M M M `# $B#C.% + . . ",
". + M .$a++$]@@$z (.(.& (.(.(.(.(.(.(.(.(.(.(.(.(.(.(.(.(.(.(.(.(.(.(.(.(.(.(.(.(.(.(.(.& (.& & & (.(.(.(.(.(.#$$$y#%$| A . . . ",
". . A z ;.5@(@P+&$*$1 V V V V V V V V B.B.B.B.V 1 V V V 1 V B.B.V V V V V V B.B.B.B.V V B.B.B.V V V V V V B.V =$-$;$>$# . . . . ",
". . . # h@,$'$)$H#!$C.= = = = = = = = = = = = = = = C.C.= = = = = = = = C.= = = = = = = = = = = = = = = = A ~${$9.]$< + . . . . ",
". . . @ M B.^$/$m+($3+m 2 m m m m 2 m m m m m m m m m m m m m m m m m m m m m m m m m m m m m m m m m m _$_.:$-+<$z A . . . . . ",
". . . . = < .$[$)#}$|$1$2$@ @ @ @ @ @ @ @ @ @ @ @ @ @ @ @ @ @ @ @ @ @ @ @ @ @ @ @ @ @ @ @ @ @ @ @ @ @ ;.3$4$5$6$< # . . . . . . ",
". . . . . A $ j 7$8$V@9$p@@ o+o+o+o+0$o+o+o+o+a$a$a$o+o+o+a$a$o+a$a$a$a$o+a$a$a$b$a$o+o+c$a$a$a$a$a$b$d$++e$f$g$>.+ . . . . . . ",
". . . . . . j $ j *+h. @%@h$,.i$j$j$j$k$K K K K K K K K K K l$K K K K l$K K K K K K m$i$n$K K K / o$p$6@q$r$s$>.@ . . . . . . . ",
". . . . . . . j l C.3 t$E+u$v$w$x$y$y$y$y$m#m#m#m#m#m#m#m#y$y$m#m#m#y$y$y$m#m#m#m#m#y$y$y$m#m#b#b#r@z$A$B$< # @ . . . . . . . . ",
". . . . . . . . @ M V C$4 O '+($q#y$D$E$E$E$E$E$E$F$F$E$E$E$F$E$E$E$F$F$E$F$F$F$F$F$F$F$F$G$H$$$|@S@I$J$K$>.k . . . . . . . . . ",
". . . . . . . . . + | >$;.5#L$z#M$N$O$H+h+P$P$P$P$P$P$P$P$P$P$P$P$P$P$P$P$P$P$P$P$P$P$Q$R$S$}$y#T$B U$V$j k . . . . . . . . . . ",
". . . . . . . . . . + [ L = 6$N#&$W$]+]@X$Y$H+Z$`$Z$`$Z$Z$`$`$Z$`$`$Z$Z$Z$`$Z$Z$`$ %.%+%@%y##%$%2$%%% A . . . . . . . . . . . . ",
". . . . . . . . . . . . ;./.>$&%*%x#=%-%1+;%>%,%f#'%)%!%!%!%~%!%~%!%~%!%!%{%7+]%^%/%(%_%:%<%,.[%}%>.+ . . . . . . . . . . . . . ",
". . . . . . . . . . . . . ;.: $ (.. g w.|%1%2%y#H#~+3%4%5%6%7%8%9%0%a%b%X+D@B#H#I#c%d%w.e%.$>.B.@ k . . . . . . . . . . . . . . ",
". . . . . . . . . . . . . . k @ [ % < f%_.g%h%/#i%I@ @;+j%j%M#>@>@y#j%c#]@k%l%m%w.K n%o%p%M A . . . . . . . . . . . . . . . . . ",
". . . . . . . . . . . . . . . . . + & % >.(.C.@ l$^$[$w$^ '$q%r%s%~ r.t%g - b$N B.% $ # @ k . . . . . . . . . . . . . . . . . . "};
